<svg id="Capa_1" data-name="Capa 1" xmlns="http://www.w3.org/2000/svg" viewBox="0 0 30 40" width="60px" height="60px"><defs><style>.cls-1,.cls-2{fill:#fff;}</style></defs><path class="cls-1" d="M14.89,17.14a2.71,2.71,0,1,0,2.71,2.71A2.71,2.71,0,0,0,14.89,17.14Z"/><path class="cls-1" d="M18.24,12.89H11.4a3.54,3.54,0,0,0-3.54,3.53v6.85a3.55,3.55,0,0,0,3.54,3.54h6.84a3.55,3.55,0,0,0,3.54-3.54V16.42A3.54,3.54,0,0,0,18.24,12.89ZM14.89,24.07a4.22,4.22,0,1,1,4.22-4.22A4.23,4.23,0,0,1,14.89,24.07Zm4.47-7.72a1,1,0,1,1,1-1A1,1,0,0,1,19.36,16.35Z"/><path class="cls-2" d="M21.79,5.23H7.85A7.67,7.67,0,0,0,.2,12.87v14a7.67,7.67,0,0,0,7.65,7.65H21.79a7.67,7.67,0,0,0,7.65-7.65V12.87A7.67,7.67,0,0,0,21.79,5.23Zm1.6,18a5.16,5.16,0,0,1-5.15,5.15H11.4a5.16,5.16,0,0,1-5.15-5.15V16.42a5.15,5.15,0,0,1,5.15-5.14h6.84a5.15,5.15,0,0,1,5.15,5.14Z"/></svg>