<svg id="Capa_1" data-name="Capa 1" xmlns="http://www.w3.org/2000/svg" viewBox="0 0 30 40"><defs><style>.cls-1{fill:#fff;}</style></defs><path class="cls-1" d="M15.69,13.89A6.82,6.82,0,0,0,8.88,20.7a6.71,6.71,0,0,0,1,3.53l.17.29-.68,2.54,2.56-.68.28.17a6.81,6.81,0,1,0,3.48-12.66Zm4,9.38a2,2,0,0,1-1.52,1.13,3.24,3.24,0,0,1-1.68-.26,7.06,7.06,0,0,1-1.44-.69,8.27,8.27,0,0,1-2.31-2.14c-.19-.26-.37-.54-.53-.81a4.26,4.26,0,0,1-.51-1.18,1.88,1.88,0,0,1-.07-.53,2.1,2.1,0,0,1,.73-1.68A1,1,0,0,1,13.41,17c.35.19.53.7.7,1.05a1.77,1.77,0,0,1,.22.95,1.87,1.87,0,0,1-.5.8.34.34,0,0,0,0,.46,5.48,5.48,0,0,0,2.72,2.33.31.31,0,0,0,.39-.09c.2-.25.4-.74.71-.86a1.38,1.38,0,0,1,1.2.27c.33.19.87.43,1,.82A1,1,0,0,1,19.69,23.27Z"/><path class="cls-1" d="M22,6.41H8.05A7.67,7.67,0,0,0,.41,14.06V28a7.68,7.68,0,0,0,7.65,7.65H22A7.67,7.67,0,0,0,29.65,28V14.06A7.67,7.67,0,0,0,22,6.41ZM15.69,29.1a8.34,8.34,0,0,1-4-1L7.13,29.3l1.22-4.54a8.39,8.39,0,1,1,7.34,4.34Z"/></svg>