<svg id="Capa_1" data-name="Capa 1" xmlns="http://www.w3.org/2000/svg" viewBox="0 0 30 40" width="60px" height="60px"><defs><style>.cls-1{fill:#fff;}</style></defs><path class="cls-1" d="M22,4.42H8.06A7.68,7.68,0,0,0,.41,12.07V26a7.68,7.68,0,0,0,7.65,7.65H22A7.68,7.68,0,0,0,29.65,26V12.07A7.68,7.68,0,0,0,22,4.42Zm1.17,9.63a.4.4,0,0,1-.08.25,6.45,6.45,0,0,1-1.28,1.33c-.07,0-.19.11-.19.21A9.8,9.8,0,0,1,19,23,9.65,9.65,0,0,1,9.66,25.2a9.11,9.11,0,0,1-1.81-.72c-.19-.11-.38-.21-.57-.34s-.08-.07,0-.09.07,0,.22,0a6.4,6.4,0,0,0,2.71-.35c.47-.17,1.49-.5,1.78-.95l0,0c-.11,0-.23,0-.35-.05A3.46,3.46,0,0,1,9,20.5c0-.09,0-.14.09-.12a3.53,3.53,0,0,0,1.24,0,1.57,1.57,0,0,1-.42-.13,3.36,3.36,0,0,1-2.08-2.68,1.64,1.64,0,0,1,0-.38c0-.08,0-.11.12-.06a3.49,3.49,0,0,0,1.27.35c-.14-.11-.27-.23-.4-.35a3.34,3.34,0,0,1-.57-3.94c.06-.09.1-.09.18,0A10.18,10.18,0,0,0,15,16.49c.07,0,.08,0,.07-.08a3.51,3.51,0,0,1,0-1.37,3.32,3.32,0,0,1,.65-1.3,3.47,3.47,0,0,1,1.09-.89,3.33,3.33,0,0,1,1.35-.38,3.15,3.15,0,0,1,1.42.23,3.34,3.34,0,0,1,.92.56,1.49,1.49,0,0,1,.17.18.14.14,0,0,0,.13,0,8.19,8.19,0,0,0,1.91-.73.09.09,0,0,1,.09,0s0,.06,0,.09a3.06,3.06,0,0,1-.53,1c-.16.19-.54.66-.8.7A6.52,6.52,0,0,0,23.11,14c.06,0,.06,0,.06,0Z"/></svg>