<svg id="Capa_1" data-name="Capa 1" xmlns="http://www.w3.org/2000/svg" viewBox="0 0 30 40" width="60px" height="60px"><defs><style>.cls-1{fill:#fff;}</style></defs><path class="cls-1" d="M17.3,19.76l-3.85-2.09c-.16-.09-.7,0-.7.2V22c0,.18.53.29.69.21l4-2C17.63,20.09,17.46,19.85,17.3,19.76Z"/><path class="cls-1" d="M21.89,5.28H8A7.67,7.67,0,0,0,.3,12.93V26.87A7.67,7.67,0,0,0,8,34.52H21.89a7.67,7.67,0,0,0,7.65-7.65V12.93A7.67,7.67,0,0,0,21.89,5.28ZM22.75,22a3.51,3.51,0,0,1-3.51,3.51h-9A3.51,3.51,0,0,1,6.75,22V17.77a3.51,3.51,0,0,1,3.51-3.51h9a3.52,3.52,0,0,1,3.51,3.51Z"/></svg>